# xmcd CD database file
#
# Track frame offsets:
#	150
#	55695
#	78325
#	98062
#	113767
#	131512
#	146335
#	161647
#	176182
#	187515
#	202327
#	216867
#	241687
#
# Disc length: 3645 seconds
#
# Revision: 0
# Processed by: cddbd v1.5.1PL2 Copyright (c) Steve Scherf et al.
# Submitted via: CDex 1.51
#
DISCID=ab0e3b0d
DTITLE=Joel Denis - Le Yaya party
DYEAR=1900
DGENRE=Québécois
TTITLE0=Le yaya party
TTITLE1=haut les mains
TTITLE2=Hot ! Hot! Hot!
TTITLE3=Bamboléo /on a des hauts on a des bas
TTITLE4=partir au soleil
TTITLE5=lambada
TTITLE6=la colegiala
TTITLE7=Pepito ( chanté par Isabelle Denis et Stéphanie Denis)
TTITLE8=Le yaya (version Originale)
TTITLE9=hey hey Lolita
TTITLE10=c'est pas encore fait
TTITLE11=bonus 1 
TTITLE12=bonus 2
EXTD=
EXTT0=
EXTT1=
EXTT2=
EXTT3=
EXTT4=
EXTT5=
EXTT6=
EXTT7=
EXTT8=
EXTT9=
EXTT10=
EXTT11=
EXTT12=
PLAYORDER=
